<?xml version="1.0" encoding="UTF-8" standalone="no"?>
<svg width="256px" height="256px" viewBox="0 0 256 256" version="1.1" xmlns="http://www.w3.org/2000/svg" xmlns:xlink="http://www.w3.org/1999/xlink">
    <defs></defs>
    <g id="Page-1" stroke="none" stroke-width="1" fill="none" fill-rule="evenodd" stroke-linecap="round">
        <g id="Shield" stroke="#0DA58E">
            <path d="M43.8456376,160.194758 C31.8534174,132.803838 43,75.6047016 43,55 C43,43.8440344 33,21 33,21 C33,21 95.3815853,11 128,11 C159.048252,11 224,21 224,21 C224,21 214,44.133457 214,56 C214,76.8783894 224.594686,134.726891 212.004779,162.652093 C186.524491,219.168965 128,246 128,246 C128,246 69.0115251,217.675092 43.8456376,160.194758 Z" id="Rectangle-16" stroke-width="4"></path>
            <path d="M58.0853509,156.069649 C48.039512,133.107898 57.3769634,75.1579839 57.3769634,57.8851064 C57.3769634,48.5330841 51,33.3829787 51,33.3829787 C51,33.3829787 101.256825,25 128.581152,25 C128.581154,57.8851051 128.581152,228 128.581152,228 C128.581152,228 79.1667226,204.25529 58.0853509,156.069649 Z" id="Rectangle-16-Copy" stroke-width="2" fill-opacity="0.0929857337" fill="#0DA58E"></path>
            <path d="M135.585351,156.069649 C125.539512,133.107898 134.876963,75.1579839 134.876963,57.8851064 C134.876963,48.5330841 128.5,33.3829787 128.5,33.3829787 C128.5,33.3829787 178.756825,25 206.081152,25 C206.081154,57.8851051 206.081152,228 206.081152,228 C206.081152,228 156.666723,204.25529 135.585351,156.069649 Z" id="Rectangle-16-Copy-2" stroke-width="2" transform="translate(167.290576, 126.500000) scale(-1, 1) translate(-167.290576, -126.500000) "></path>
        </g>
    </g>
</svg>